<svg id="Layer_1" data-name="Layer 1" xmlns="http://www.w3.org/2000/svg" viewBox="0 0 612.08 462.92"><defs><style>.cls-1,.cls-2{fill:#110454;stroke-linecap:round;stroke-linejoin:round;}.cls-1{stroke:#fff;stroke-width:25px;}.cls-2{stroke:#110454;stroke-width:6px;}</style></defs><path class="cls-1" d="M622,195.13c27.85,13.37,44,40.67,44,67.41,0,36.77-25.63,71.87-65.74,80.79,18.38,13.93,26.36,35.7,27.85,59.61,1.12,17.83,0,25.63-2.22,33.43,20.61,2.79,35.1,8.92,50.7,20.06,2.78,2.23-1.12,6.13-3.35,4.46-14.48-10-28.41-14.49-48.47-16.72C604.15,517.71,526.7,603,435.33,603c-26.74,0-42.9-17.27-42.9-38.44,0-75.78,117-133.16,202.24-130.38,5-13.37,10-30.64,10-47.91,0-15.6-4.45-30.64-16.15-41.23h-8.36c-29,0-26.19-15.6-11.14-15.6,5.57,0,16.71,3.34,23.4,8.36,18.38-2.79,55.71-30.65,55.71-78.56,0-27.3-11.7-50.14-29.53-60.17-69.08,69.64-178.28,261.3-216.17,291.38-1.67,2.79-36.77,35.66-40.11,37.89-45.69,26.74-68.07,29-102.52,22.29-45.69-8.92-68-31.2-86.36-64.08-42.34-1.67-83-30.64-83-76.88,0-83.57,98.06-139.85,173.27-139.85,27.3,0,53.49,6.13,80.23,11.7C383.52,213.51,463.19,179,540.07,179c22.29,0,49.59,2.79,72.43,12.26,0,.55.56.55,1.12.55,20.06-16.71,38.44-26.74,54.6-26.74,3.9,0,7.8,3.34,7.8,7.24,0,4.46-3.9,6.69-7.8,6.69-6.13,0-7.8-5.57-12.82-5.57C647.6,173.4,635.9,181.76,622,195.13ZM350.65,394c-18.39-7.8-26.75-26.74-26.75-50.14,0-19.5,7.8-40.12,17.27-57.39-25.63-5.57-51.25-11.14-77.44-11.14-71.87,0-167.7,54-167.7,134.27,0,44.57,40.67,71.31,81.9,71.31C225.84,480.94,310.53,445.29,350.65,394Zm259.07-198.9c-21.73-8.36-49-10.59-69.65-10.59-75.21,0-150.42,32.87-190.54,98.06,22.84,5,45.13,8.91,68.53,8.91,34.54,0,77.44-19.5,73.54-57.38-.55-3.35,3.35-2.23,3.35-1.12,2.22,6.13,2.78,12.82,2.78,20.06,0,58.5-64.07,144.3-126.47,144.3a57.75,57.75,0,0,1-14.49-1.67c-37.88,46.24-104.18,80.79-157.11,89.14,7.8,25.63,36.77,44.58,62.4,44.58C367.92,529.42,508.87,282,609.72,195.13ZM366.8,308.23c5.57,5,15.6,6.13,19.5,3.9a63.57,63.57,0,0,1,.56,10.58c0,24-10,47.36-26.19,68.53a63.75,63.75,0,0,0,10.59.56c58.5,0,122-84.13,122-137.62-5.57,22.29-39.55,42.9-75.21,42.9-24.51,0-47.91-4.45-71.31-9.47-9.48,17.28-17.28,36.78-17.28,56.83,0,21.73,7.25,38.45,25.08,45.13,11.7-16.71,18.94-34.54,18.94-53.48a60.64,60.64,0,0,0-7.24-27.3Zm32.87,256.84c0,17.27,13.93,30.65,36.78,30.65,58.5,0,127.58-87.48,155.44-154.33C520,438,399.67,493.76,399.67,565.07Z" transform="translate(-77.96 -152.54)"/><path class="cls-2" d="M622,195.13c27.85,13.37,44,40.67,44,67.41,0,36.77-25.63,71.87-65.74,80.79,18.38,13.93,26.36,35.7,27.85,59.61,1.12,17.83,0,25.63-2.22,33.43,20.61,2.79,35.1,8.92,50.7,20.06,2.78,2.23-1.12,6.13-3.35,4.46-14.48-10-28.41-14.49-48.47-16.72C604.15,517.71,526.7,603,435.33,603c-26.74,0-42.9-17.27-42.9-38.44,0-75.78,117-133.16,202.24-130.38,5-13.37,10-30.64,10-47.91,0-15.6-4.45-30.64-16.15-41.23h-8.36c-29,0-26.19-15.6-11.14-15.6,5.57,0,16.71,3.34,23.4,8.36,18.38-2.79,55.71-30.65,55.71-78.56,0-27.3-11.7-50.14-29.53-60.17-69.08,69.64-178.28,261.3-216.17,291.38-1.67,2.79-36.77,35.66-40.11,37.89-45.69,26.74-68.07,29-102.52,22.29-45.69-8.92-68-31.2-86.36-64.08-42.34-1.67-83-30.64-83-76.88,0-83.57,98.06-139.85,173.27-139.85,27.3,0,53.49,6.13,80.23,11.7C383.52,213.51,463.19,179,540.07,179c22.29,0,49.59,2.79,72.43,12.26,0,.55.56.55,1.12.55,20.06-16.71,38.44-26.74,54.6-26.74,3.9,0,7.8,3.34,7.8,7.24,0,4.46-3.9,6.69-7.8,6.69-6.13,0-7.8-5.57-12.82-5.57C647.6,173.4,635.9,181.76,622,195.13ZM350.65,394c-18.39-7.8-26.75-26.74-26.75-50.14,0-19.5,7.8-40.12,17.27-57.39-25.63-5.57-51.25-11.14-77.44-11.14-71.87,0-167.7,54-167.7,134.27,0,44.57,40.67,71.31,81.9,71.31C225.84,480.94,310.53,445.29,350.65,394Zm259.07-198.9c-21.73-8.36-49-10.59-69.65-10.59-75.21,0-150.42,32.87-190.54,98.06,22.84,5,45.13,8.91,68.53,8.91,34.54,0,77.44-19.5,73.54-57.38-.55-3.35,3.35-2.23,3.35-1.12,2.22,6.13,2.78,12.82,2.78,20.06,0,58.5-64.07,144.3-126.47,144.3a57.75,57.75,0,0,1-14.49-1.67c-37.88,46.24-104.18,80.79-157.11,89.14,7.8,25.63,36.77,44.58,62.4,44.58C367.92,529.42,508.87,282,609.72,195.13ZM366.8,308.23c5.57,5,15.6,6.13,19.5,3.9a63.57,63.57,0,0,1,.56,10.58c0,24-10,47.36-26.19,68.53a63.75,63.75,0,0,0,10.59.56c58.5,0,122-84.13,122-137.62-5.57,22.29-39.55,42.9-75.21,42.9-24.51,0-47.91-4.45-71.31-9.47-9.48,17.28-17.28,36.78-17.28,56.83,0,21.73,7.25,38.45,25.08,45.13,11.7-16.71,18.94-34.54,18.94-53.48a60.64,60.64,0,0,0-7.24-27.3Zm32.87,256.84c0,17.27,13.93,30.65,36.78,30.65,58.5,0,127.58-87.48,155.44-154.33C520,438,399.67,493.76,399.67,565.07Z" transform="translate(-77.96 -152.54)"/></svg>