<svg id="Layer_1" data-name="Layer 1" xmlns="http://www.w3.org/2000/svg" viewBox="0 0 593.08 443.92"><defs><style>.cls-1{fill:#110454;stroke:#110454;stroke-linecap:round;stroke-linejoin:round;stroke-width:6px;}</style></defs><path class="cls-1" d="M621.66,195.58c27.86,13.37,44,40.68,44,67.42,0,36.77-25.62,71.87-65.74,80.78,18.39,13.93,26.36,35.71,27.86,59.62,1.11,17.83,0,25.63-2.23,33.43,20.61,2.78,35.1,8.91,50.7,20.05,2.79,2.23-1.11,6.13-3.34,4.46-14.49-10-28.42-14.48-48.47-16.71C603.83,518.17,526.39,603.41,435,603.41c-26.75,0-42.9-17.27-42.9-38.44,0-75.77,117-133.16,202.24-130.37,5-13.37,10-30.64,10-47.92,0-15.6-4.46-30.64-16.16-41.22h-8.36c-29,0-26.18-15.6-11.14-15.6,5.57,0,16.71,3.34,23.4,8.35,18.39-2.78,55.72-30.64,55.72-78.55,0-27.3-11.7-50.15-29.53-60.18C549.23,269.13,440,460.78,402.14,490.87c-1.67,2.79-36.77,35.66-40.11,37.89C316.34,555.5,294,557.76,259.51,551c-45.68-8.91-68-31.2-86.35-64.07-42.35-1.67-83-30.64-83-76.89,0-83.57,98.06-139.84,173.27-139.84,27.3,0,53.49,6.13,80.23,11.7,39.56-68,119.23-102.51,196.12-102.51,22.28,0,49.58,2.78,72.43,12.25,0,.56.56.56,1.11.56,20.06-16.71,38.45-26.74,54.6-26.74,3.9,0,7.8,3.34,7.8,7.24,0,4.46-3.9,6.69-7.8,6.69-6.13,0-7.8-5.58-12.81-5.58C647.29,173.85,635.59,182.21,621.66,195.58ZM350.33,394.48c-18.39-7.8-26.74-26.74-26.74-50.14,0-19.5,7.8-40.11,17.27-57.38-25.63-5.58-51.26-11.15-77.45-11.15-71.87,0-167.7,54.05-167.7,134.27,0,44.58,40.68,71.32,81.9,71.32C225.53,481.4,310.21,445.74,350.33,394.48ZM609.4,195.58c-21.73-8.35-49-10.58-69.64-10.58-75.22,0-150.43,32.87-190.54,98.06,22.84,5,45.12,8.91,68.52,8.91,34.55,0,77.45-19.5,73.55-57.39-.56-3.34,3.34-2.22,3.34-1.11,2.23,6.13,2.79,12.81,2.79,20.06,0,58.5-64.08,144.3-126.48,144.3a57.67,57.67,0,0,1-14.48-1.67c-37.89,46.24-104.19,80.78-157.12,89.14,7.8,25.63,36.77,44.57,62.4,44.57C367.6,529.87,508.56,282.5,609.4,195.58ZM366.49,308.68c5.57,5,15.6,6.13,19.5,3.9a64.9,64.9,0,0,1,.55,10.59c0,24-10,47.36-26.18,68.53a63.57,63.57,0,0,0,10.58.56c58.5,0,122-84.13,122-137.62-5.57,22.29-39.56,42.9-75.22,42.9-24.51,0-47.91-4.46-71.31-9.47-9.47,17.27-17.27,36.77-17.27,56.83,0,21.73,7.24,38.44,25.07,45.13,11.7-16.72,18.94-34.55,18.94-53.49a60.51,60.51,0,0,0-7.24-27.3Zm32.87,256.85c0,17.27,13.93,30.64,36.77,30.64,58.5,0,127.59-87.47,155.44-154.33C519.7,438.5,399.36,494.21,399.36,565.53Z" transform="translate(-87.14 -162.5)"/></svg>