<svg id="Outline" xmlns="http://www.w3.org/2000/svg" viewBox="0 0 512 512"><defs><style>.cls-1{fill:#110454}</style></defs><path class="cls-1" d="M149.3 0h-64A85.3 85.3 0 0 0 0 85.3v64a85.3 85.3 0 0 0 85.3 85.4h64a85.3 85.3 0 0 0 85.4-85.4v-64A85.3 85.3 0 0 0 149.3 0ZM192 149.3a42.7 42.7 0 0 1-42.7 42.7h-64a42.7 42.7 0 0 1-42.6-42.7v-64a42.7 42.7 0 0 1 42.6-42.6h64A42.7 42.7 0 0 1 192 85.3ZM426.7 0h-64a85.3 85.3 0 0 0-85.4 85.3v64a85.3 85.3 0 0 0 85.4 85.4h64a85.3 85.3 0 0 0 85.3-85.4v-64A85.3 85.3 0 0 0 426.7 0Zm42.6 149.3a42.7 42.7 0 0 1-42.6 42.7h-64a42.7 42.7 0 0 1-42.7-42.7v-64a42.7 42.7 0 0 1 42.7-42.6h64a42.7 42.7 0 0 1 42.6 42.6ZM149.3 277.3h-64A85.3 85.3 0 0 0 0 362.7v64A85.3 85.3 0 0 0 85.3 512h64a85.3 85.3 0 0 0 85.4-85.3v-64a85.3 85.3 0 0 0-85.4-85.4ZM192 426.7a42.7 42.7 0 0 1-42.7 42.6h-64a42.7 42.7 0 0 1-42.6-42.6v-64A42.7 42.7 0 0 1 85.3 320h64a42.7 42.7 0 0 1 42.7 42.7ZM426.7 277.3h-64a85.3 85.3 0 0 0-85.4 85.4v64a85.3 85.3 0 0 0 85.4 85.3h64a85.3 85.3 0 0 0 85.3-85.3v-64a85.3 85.3 0 0 0-85.3-85.4Zm42.6 149.4a42.7 42.7 0 0 1-42.6 42.6h-64a42.7 42.7 0 0 1-42.7-42.6v-64a42.7 42.7 0 0 1 42.7-42.7h64a42.7 42.7 0 0 1 42.6 42.7Z"/></svg>