<svg id="Outline" xmlns="http://www.w3.org/2000/svg" viewBox="0 0 512 511.69"><defs><style>.cls-1{fill:#110454;}</style></defs><path class="cls-1" d="M493.25,193.47,331.43,31.64a106.82,106.82,0,0,0-150.86,0L18.75,193.47A63.52,63.52,0,0,0,0,238.72V448.15a64,64,0,0,0,64,64H448a64,64,0,0,0,64-64V238.72A63.52,63.52,0,0,0,493.25,193.47ZM320,469.48H192V385.56a64,64,0,1,1,128,0Zm149.33-21.33A21.33,21.33,0,0,1,448,469.48H362.67V385.56a106.67,106.67,0,0,0-213.34,0v83.92H64a21.33,21.33,0,0,1-21.33-21.33V238.72a21.48,21.48,0,0,1,6.25-15.08L210.73,61.87a64.17,64.17,0,0,1,90.54,0L463.08,223.7a21.49,21.49,0,0,1,6.25,15Z" transform="translate(0 -0.46)"/></svg>