<svg id="Layer_1" data-name="Layer 1" xmlns="http://www.w3.org/2000/svg" viewBox="0 0 512 510.68"><defs><style>.cls-1{fill:#110454;}</style></defs><path class="cls-1" d="M516,215,354,54a107,107,0,0,0-150,0L42,215a64,64,0,0,0-19,46V470a64,64,0,0,0,64,64H471a64,64,0,0,0,64-64V261A64,64,0,0,0,516,215ZM343,491H215V408a64,64,0,0,1,128,0Zm149-21a21,21,0,0,1-21,21H386V408a107,107,0,0,0-214,0v83H87a21,21,0,0,1-21-21V261a21,21,0,0,1,6-15L234,84a64,64,0,0,1,90,0L486,246a21,21,0,0,1,6,15Z" transform="translate(-23 -23.32)"/></svg>