<svg xmlns="http://www.w3.org/2000/svg" width="48" height="48"><path fill="#304ffe" d="M41.67 13.48c-.4.26-.97.5-1.21.77-.09.09-.14.19-.12.29v1.03l-.3 1.01-.3 1-.33 1.1-.68 2.25-.66 2.22-.5 1.67a9.91 9.91 0 0 1-1.66 5.59c-.4.63-.88 1.21-1.41 1.72-.41.41-.86.79-1.35 1.11h-.01a7.23 7.23 0 0 1-1.25.73c-.23.12-.46.22-.7.31l-.16.07c-.57.27-1.23.45-1.89.54l-.11.02a12.13 12.13 0 0 1-1.74.19l-.71-.04-3.42-.18h-.01l-1.72-.09-.4-.01a9.22 9.22 0 0 1-1.58-.19h-.01a10.23 10.23 0 0 1-5.9-3.44l-.16-.18a8.57 8.57 0 0 1-1.88-3.79 10.55 10.55 0 0 1-.33-2.27c-.02-.13-.02-.27-.02-.4l1.91-2.95 1.87-2.88.85-1.31.77-1.18.26-.41v-1.03a6.35 6.35 0 0 0-.36-2.72c-.22-.69-.53-1.34-.85-1.94-.38-.69-.78-1.31-1.11-1.87-.49-.82-.83-1.49-.74-1.96A9.82 9.82 0 0 1 16 6h16a10.04 10.04 0 0 1 9.67 7.48z"/><path fill="#4928f4" d="M42 16v.27l-1.38.8-.88.51-.97.56-1.94 1.13-1.9 1.1-1.94 1.12-.77.45c0 .48-.12.92-.34 1.32a4.04 4.04 0 0 1-1.49 1.47 9 9 0 0 1-2.41.98h-.01c-3.56.92-8.42.5-10.78-1.26a3.44 3.44 0 0 1-1.32-1.78 2.92 2.92 0 0 1-.09-.73v-7.19c.01-.15-.09-.3-.27-.45-.54-.43-1.81-.84-3.23-1.25-1.11-.31-2.3-.62-3.3-.92-.79-.24-1.46-.48-1.86-.71A10.04 10.04 0 0 1 16 6h10.8a33.68 33.68 0 0 1 14.47 6.26c.16.39.3.8.4 1.22.18.66.29 1.34.32 2.05L42 16z"/><path fill="#6200ea" d="M42 16v4.41l-.22.68-.75 2.33-.78 2.4-.41 1.28-.38 1.19-.37 1.13-.36 1.12-.19.59-.25.78a23.47 23.47 0 0 1-.09 2.18 6.53 6.53 0 0 1-.32 1.53 2.5 2.5 0 0 1-1.7 1.68c-.53.18-1.2.27-2.02.32-.6.04-1.29.05-2.07.05h-.69l-1.19-.05-.21-.01-2.17-.09-2.2-.09-7.25-.3-1.88-.08h-.26c-.78-.01-1.45-.06-2.03-.14a4.84 4.84 0 0 1-1.98-.68 3.2 3.2 0 0 1-1.35-2.03 15.78 15.78 0 0 1-.32-2.7l-.01-.46v-.59l-.01-.9.05-1.61.03-1.15.04-1.34v-.19l.07-2.46.07-2.46.07-2.31.06-2.27.02-.6c0-.31-1.05-.49-2.22-.64-.93-.12-1.95-.23-2.56-.37l.16-.68a9.25 9.25 0 0 1 1.4-3.08 33.33 33.33 0 0 1 6.76-2.17 31.67 31.67 0 0 1 27.5 7.31L42 16z"/><path fill="#673ab7" d="M42 18.37v4.54l-.55 1.06-1.05 2.05-.56 1.08-.51.99-.22.43c0 .31 0 .61-.02.9a15.51 15.51 0 0 1-.21 2.46 7.12 7.12 0 0 1-.78 2.23 3.75 3.75 0 0 1-.99 1.08c-.34.26-.74.47-1.2.63-.57.21-1.23.35-2.01.43-.51.05-1.07.08-1.68.08l-.42.02-2.08.12h-.01l-2.21.13-2.25.13-3.1.18-3.77.22-.55.03c-.51 0-.99-.03-1.45-.09l-.14-.02a7.47 7.47 0 0 1-1.86-.54 6.09 6.09 0 0 1-2.9-2.65c-.07-.13-.14-.25-.2-.39a9.34 9.34 0 0 1-.94-3.07c-.11-.64-.17-1.32-.2-2.03v-.01l-.02-.87-.49-1.17-.07-.18-.06-.15-.75-1.79-.12-.29-.72-1.73-.8-1.93H7.1l-.81-1.95-.29-.71V16a10.27 10.27 0 0 1 .33-2.53 28.92 28.92 0 0 1 14.59-3.86A29.72 29.72 0 0 1 42 18.37z"/><path fill="#8e24aa" d="M42 21.35v5.14l-.57 1.19-1.08 2.25-.01.03c0 .43-.02.82-.05 1.17-.1 1.15-.38 1.88-.84 2.33-.33.34-.74.53-1.25.63l-.1.02a13.73 13.73 0 0 1-2.7.01l-.29-.02a81.35 81.35 0 0 0-3.2-.13h-.02l-1.01.08h-.01l-2.27.16-2.59.2-.38.03-3.03.22-1.57.12-1.55.11-.79-.01h-.01a18.34 18.34 0 0 1-3.04-.26 7.16 7.16 0 0 1-2.18-.69 4.43 4.43 0 0 1-1.6-1.31 5.46 5.46 0 0 1-.9-2.07v-.01c-.14-.67-.22-1.45-.22-2.33l-.15-.27-.89-1.59-.13-.22-.07-.14-.93-1.65-.46-.83-.58-1.03-1-1.79-.53-.94v-3.68c.88-.58 1.79-1.09 2.73-1.55a27.3 27.3 0 0 1 12.19-2.85c6.8 0 13.04 2.43 17.85 6.47.22.17.43.36.64.54.84.75 1.64 1.56 2.37 2.41.08.09.16.17.22.26z"/><path fill="#c2185b" d="M42 24.71v7.23a9.82 9.82 0 0 0-.98-.49 15.59 15.59 0 0 0-2.85-1.1 25.36 25.36 0 0 0-2.72-.64 17.4 17.4 0 0 0-2.77-.25l-.25-.01-2.57.02-3.5.02h-.01l-7.49.06c-2.38 0-3.84.57-4.72.8l-.01.01c-.93.24-1.22.09-1.3-1.54-.02-.45-.03-1.03-.03-1.74l-.56-.43-.98-.74-.6-.46-.12-.09-1.66-1.26-.25-.19-.52-.4-.96-.72L6 21.91v-3.4a25.75 25.75 0 0 1 10.83-4.45 25.59 25.59 0 0 1 21.9 6.87 25.8 25.8 0 0 1 2.3 2.49l.42.55.55.74z"/><path fill="#d81b60" d="M42 28.72V32a10.05 10.05 0 0 1-1.09 4.53c-.22.05-.47.05-.75.01a7.78 7.78 0 0 1-2.28-.92c-.25-.13-.51-.27-.77-.43l-1.65-.91-.35-.18c-.64-.33-1.3-.63-1.96-.86h-.01l-.44-.14a6.4 6.4 0 0 0-1.71-.26l-1.1-.32-4.87-1.41h-.01l-2.99-.87h-.01l-1.3-.38c-3.76 0-6.07 1.6-7.19.99-.44-.23-.7-.81-.79-1.95-.03-.32-.04-.68-.04-1.1l-1.17-.57-.05-.02h-.01l-.84-.42-.92-.44-.07-.03-.17-.09-1.96-.95-1.5-.73v-3.43l.53-.43.57-.44h.01a23.22 23.22 0 0 1 9.44-4.06 23.49 23.49 0 0 1 23.7 9.63l.15.2c.37.54.71 1.09 1.03 1.66.21.34.39.69.57 1.04z"/><path fill="#f50057" d="M41.82 33.91a9.93 9.93 0 0 1-1.98 4.28c-.36-.14-.89-.34-1.54-.56v-.01a30.12 30.12 0 0 0-4.34-1.13c-.6-.1-1.19-.16-1.74-.16l-.46-.13h-.01l-2.42-.7-1.49-.43-1.66-.48h-.01l-.54-.15-6.53-1.88-1.88-.54-1.4-.33-2.28-.54-.28-.07h-.01l-2.29-.53v-.01l-.41-.09-.21-.05-1.67-.39-.19-.05-1.42-1.17L6 27.9v-4.08c.37-.36.75-.7 1.15-1.03l.38-.31.38-.3a20.2 20.2 0 0 1 2.89-1.84 19.82 19.82 0 0 1 4.98-1.89 21.6 21.6 0 0 1 26.04 15.46z"/><path fill="#ff1744" d="M40.28 37.59a9.28 9.28 0 0 1-1.9 2.09c-.47.39-.97.74-1.5 1.04a10.36 10.36 0 0 1-2.6-1.2 23.9 23.9 0 0 1-2.16-1.57l-.21-.18-1.7-.15-.21-.02-2.2-.19-2.28-.2-3.37-.3-5.34-.47-.02-.01-1.88-.91-1.9-.92-1.53-.74-.33-.16-.41-.2-1.42-.69-1.89-.91-.59-.29-.84-.26v-4.47a20.58 20.58 0 0 1 2.57-2.54l.18-.14a16.75 16.75 0 0 1 4.31-2.64 18.93 18.93 0 0 1 7.86-1.67 19.31 19.31 0 0 1 17.25 10.46c.13.26.26.52.37.78l.34.75a21.18 21.18 0 0 1 1.28 4.66l.12 1.05z"/><path fill="#ff5722" d="m38.39 39.42-.01.26c-.47.39-.97.74-1.5 1.04-.22.12-.44.24-.67.34-.23.11-.46.21-.7.3-.34-.18-.8-.4-1.29-.61a8.73 8.73 0 0 0-2.02-.68 1.84 1.84 0 0 0-.39-.04l-1.64-.21h-.02l-2.04-.27-2.06-.27-.96-.12-7.56-.98a18.96 18.96 0 0 1-3.59-.4 41.11 41.11 0 0 1-6.01-1.6 38 38 0 0 1-1.18-.4A9.38 9.38 0 0 1 6 32v-1.67a16.65 16.65 0 0 1 3.56-4.19l.01-.01c.31-.28.63-.53.97-.77l.12-.1a17.24 17.24 0 0 1 10.26-3.32 17.4 17.4 0 0 1 14.53 7.77l.46.7a18.35 18.35 0 0 1 2.02 5.04l.06.22c.14.63.24 1.29.31 1.95v.01c.06.59.09 1.19.09 1.79z"/><path fill="#ff6f00" d="M36.33 39.42a10.75 10.75 0 0 1-.12 1.64 8.67 8.67 0 0 1-2.08.71 8 8 0 0 1-.98.16h-.01c-.31-.19-.67-.42-1.04-.68-.67-.47-1.37-1-1.93-1.43l-.02-.02-1.01-.79-1.06.04-2.04.07-.95.04-3.82.14-3.23.12a9.8 9.8 0 0 1-.77 0h-.01a102.22 102.22 0 0 1-3.52-.27l-2.06-.24a82.47 82.47 0 0 1-3.25-.4 9.6 9.6 0 0 1-2.12-4.07 14.41 14.41 0 0 1 2.36-4.43c.45-.59.94-1.14 1.47-1.64v-.01l.45-.42a12 12 0 0 1 .87-.73h.01l.03-.03c.24-.19.49-.36.74-.53A15.15 15.15 0 0 1 20.92 24c2.54 0 4.94.61 7.05 1.71h.01a15.2 15.2 0 0 1 6.52 6.42c.35.64.65 1.31.9 1.99l.06.16a19.5 19.5 0 0 1 .67 2.67l.05.35c.1.69.15 1.4.15 2.12z"/><path fill="#ff9800" d="M34.28 39.42v.1c0 .34-.03.77-.06 1.23l-.09 1.02a8 8 0 0 1-.98.16h-.01c-.38.05-.75.07-1.14.07h-1.75l-.38-.11-1.97-.6-2-.6-4.63-1.39-2-.6s-.83.33-2 .72h-.01l-1.46.47c-.65.19-1.34.38-2.02.53a14.47 14.47 0 0 1-2.56.36 10.17 10.17 0 0 1-3.56-3.28 12.61 12.61 0 0 1 1.66-4.69 12.05 12.05 0 0 1 1.23-1.77v-.01c.13-.17.27-.33.41-.48v-.01c.41-.44.83-.86 1.29-1.25l.48-.39.1-.08a13.3 13.3 0 0 1 21.07 7.43l.06.24a14.04 14.04 0 0 1 .32 2.93z"/><path fill="#ffc107" d="m32.22 39.42-.02.65A17.62 17.62 0 0 1 32 42h-5.48l-1.06-.17-4.14-.66-.59-.09-1.35-.22c-.59 0-1.87.26-3.22.51-.71.13-1.43.27-2.08.36l-.23.03h-.01a9.42 9.42 0 0 1-2.62-.98c-.56-.31-1.1-.68-1.59-1.09l-.02-.27a11.26 11.26 0 0 1 1.54-5.72l.13-.23c.18-.29.38-.57.58-.85.42-.55.89-1.07 1.39-1.54h.01l.12-.11.14-.12c.2-.18.4-.34.61-.49l.01-.01a11.28 11.28 0 0 1 6.78-2.24c1.98 0 3.82.5 5.43 1.38h.01a11.32 11.32 0 0 1 4.51 4.56h.01l.15.3c.3.59.54 1.21.72 1.85h.01l.04.15c.12.43.22.87.29 1.32l.03.28c.07.48.1.97.1 1.47z"/><path fill="#ffd54f" d="M30.17 39.31c0 .16 0 .33-.02.49v.02a9.75 9.75 0 0 1-.31 2.18h-4.67l-3.85-.83-.51-.11-.08.02-4.27.88-.19.04H16c-.64 0-1.27-.06-1.88-.18l-.27-.06h-.01a9.42 9.42 0 0 1-2.02-.68 8.33 8.33 0 0 1-.15-1.66l.01-.51a9.12 9.12 0 0 1 .55-2.68 8.99 8.99 0 0 1 3.59-4.54A9.24 9.24 0 0 1 22 30.24h.02c1.07.12 2.07.42 2.99.87h.01a9.26 9.26 0 0 1 4.69 5.36h.01c.11.37.21.74.28 1.13v.01c.11.55.17 1.12.17 1.7z"/><path fill="#ffe082" d="M28.11 39.52v.03a7.27 7.27 0 0 1-.42 2.45h-4.48l-2.29-.63-2.29.63H16c-.64 0-1.27-.06-1.88-.18l-.04-.09a6.55 6.55 0 0 1-.36-2.21c0-.12 0-.25.02-.37.01-.47.08-.93.2-1.37.06-.3.15-.59.27-.87a7.86 7.86 0 0 1 .7-1.39 7 7 0 0 1 .73-.9c.32-.36.68-.69 1.09-.96.7-.51 1.5-.89 2.37-1.1a7.19 7.19 0 0 1 6.91 1.85l.16.18h.01a6.83 6.83 0 0 1 1.62 2.82l.03.11c.14.49.23 1 .25 1.53.02.15.03.31.03.47z"/><path fill="#ffecb3" d="M26.06 39.52a5.08 5.08 0 0 1-.6 2.31l-.1.17h-8.88a4.59 4.59 0 0 1-.68-2.11c-.02-.12-.02-.25-.02-.37l.01-.19a4.94 4.94 0 0 1 .59-2.26l.01-.02a5 5 0 0 1 2.29-2.17h.01c.24-.12.49-.22.75-.29h.01a5.07 5.07 0 0 1 3.15.07c.19.05.37.13.55.22h.01a5 5 0 0 1 2.47 2.55 5 5 0 0 1 .42 1.85l.01.24z"/><path fill="none" stroke="#fff" stroke-linecap="round" stroke-linejoin="round" stroke-miterlimit="10" stroke-width="2" d="M30 11H18c-3.9 0-7 3.1-7 7v12c0 3.9 3.1 7 7 7h12c3.9 0 7-3.1 7-7V18c0-3.9-3.1-7-7-7z"/><circle cx="31" cy="16" r="1" fill="#fff"/><circle cx="24" cy="24" r="6" fill="none" stroke="#fff" stroke-linecap="round" stroke-linejoin="round" stroke-miterlimit="10" stroke-width="2"/></svg>