<svg data-name="Layer 1" xmlns="http://www.w3.org/2000/svg" viewBox="0 0 593.1 443.9"><path d="M622 196c28 13 44 40 44 67 0 37-26 72-66 81 18 14 26 35 28 59 1 18 0 26-2 34 20 3 35 9 50 20 3 2-1 6-3 4a97 97 0 0 0-49-16c-20 73-98 158-189 158-27 0-43-17-43-38 0-76 117-133 202-130 5-14 10-31 10-48 0-16-4-31-16-42h-8c-29 0-26-15-11-15 5 0 16 3 23 8 18-3 56-30 56-78 0-28-12-50-30-61-69 70-178 262-216 292l-40 38c-46 27-68 29-102 22-46-9-68-31-87-64-42-2-83-31-83-77 0-84 98-140 173-140 28 0 54 6 81 12 39-68 119-103 196-103a196 196 0 0 1 73 13c20-17 39-27 55-27 4 0 8 4 8 8s-4 6-8 6c-6 0-8-5-13-5-8 0-19 8-33 22ZM350 394c-18-7-26-26-26-50 0-19 7-40 17-57-26-6-51-11-78-11-71 0-167 54-167 134 0 45 40 71 82 71 48 0 132-35 172-87Zm259-198c-21-9-49-11-69-11-75 0-151 33-191 98 23 5 45 9 69 9 34 0 77-20 73-57 0-4 4-3 4-2 2 7 2 13 2 21 0 58-64 144-126 144a58 58 0 0 1-15-2c-37 46-104 81-157 89 8 26 37 45 63 45 106 0 247-247 347-334ZM366 309c6 5 16 6 20 4a65 65 0 0 1 1 10c0 24-10 48-27 69a64 64 0 0 0 11 0c58 0 122-84 122-137-6 22-40 43-75 43-25 0-48-5-72-10-9 17-17 37-17 57 0 22 7 38 25 45 12-17 19-35 19-53a61 61 0 0 0-7-28Zm33 257c0 17 14 30 37 30 59 0 128-87 156-154-72-3-193 52-193 124Z" transform="translate(-87 -162)" style="fill:#110454;stroke:#110454;stroke-linecap:round;stroke-linejoin:round;stroke-width:6px"/></svg>