<svg id="Layer_1" data-name="Layer 1" xmlns="http://www.w3.org/2000/svg" viewBox="0 0 730.53 521.26"><defs><style>.cls-1{isolation:isolate;}.cls-2{fill:#d88827;}.cls-3,.cls-4{fill:#110454;}.cls-4{stroke:#110454;stroke-linecap:round;stroke-linejoin:round;stroke-width:6px;}</style></defs><g class="cls-1"><path class="cls-2" d="M70.89,338.11a172.82,172.82,0,0,0-23.38,22.1Q37.61,371.66,33,380.8T30,395.28q1.53,5.33,10.67,4.06-1,5.34-6.6,6.61a20.5,20.5,0,0,1-11.82-1,26.27,26.27,0,0,1-11-8q-4.83-5.71-4.32-14.61.51-7.62,6-17a116.94,116.94,0,0,1,14.1-19.06,174.76,174.76,0,0,1,19.69-18.67,190.66,190.66,0,0,1,22.74-16,115.16,115.16,0,0,1,23.38-10.8,60,60,0,0,1,21.6-3.3,35.08,35.08,0,0,1,15.24,4.7,45.75,45.75,0,0,1,12.58,10.42,37.66,37.66,0,0,1,7.37,13.59,21.36,21.36,0,0,1-.38,14,55.38,55.38,0,0,1-6.87,12.58,118.35,118.35,0,0,1-9,11q-4.71,5.09-9.28,9.15t-7.62,6.61a30.32,30.32,0,0,1,14.61,6,40,40,0,0,1,11.3,12.06q9.41-3.29,17.16-6.09a65,65,0,0,1,16.64-3.56c1-.17,1.73.47,2.16,1.91a15.87,15.87,0,0,1,.51,5.08,13.53,13.53,0,0,1-1.4,5.46,5.32,5.32,0,0,1-3.81,3.05,133.34,133.34,0,0,0-16,4.57,100.24,100.24,0,0,0-12.7,5.34A80.21,80.21,0,0,1,136.57,439a169.75,169.75,0,0,1-16.77,26.68,196.55,196.55,0,0,1-22.74,25,178.88,178.88,0,0,1-26.43,20.45Q57.69,519.53,47,520.92t-16.64-2.79q-6-4.2-6.1-13.09T32,484A163.61,163.61,0,0,1,49.8,462.1a282.26,282.26,0,0,1,22.61-21.21q11.94-10,24-18.43a235.75,235.75,0,0,1,22-13.72,4.67,4.67,0,0,0,.38-2,14.88,14.88,0,0,0-.25-3.81,15.74,15.74,0,0,0-1.4-4.07,5.48,5.48,0,0,0-3-2.79q-4.06-1.53-9.91.76a59,59,0,0,0-12.32,6.86,120.52,120.52,0,0,0-13,10.67q-6.48,6.1-12.19,11.95t-10,10.92q-4.32,5.08-6.1,7.62c-2.2,2.89-4.36,4.32-6.48,4.32a14.19,14.19,0,0,1-6-1.27,13.79,13.79,0,0,1-5.59-4.95c-1.36-2.12-1.52-4.62-.51-7.5q2.81-8.88,7.75-22.23T50.31,386q5.58-13.85,11.18-26.8T70.89,338.11ZM45.48,500.72a51.92,51.92,0,0,0,10.16-6.48q6.11-4.69,13-11.05t14-13.59q7.11-7.25,13.08-14.36T105.82,442a43.31,43.31,0,0,0,5.47-9.91,216.39,216.39,0,0,0-18.17,13.21,271.25,271.25,0,0,0-20.45,18,183.74,183.74,0,0,0-17.53,19.57Q47.51,492.84,45.48,500.72ZM69.87,398.58q3-3.3,9.91-9.91t14.87-14.73q8-8.13,15.87-17.15a168.44,168.44,0,0,0,13.22-17q5.33-8,6.73-14.35T126.79,316q-2.3-1.51-7.12-.88A59.82,59.82,0,0,0,109,317.66a93.29,93.29,0,0,0-12.07,4.95,81.55,81.55,0,0,0-11.56,6.86,16.83,16.83,0,0,1,3.81,1.27,14.79,14.79,0,0,1,4.07,2.67,9.73,9.73,0,0,1,2.54,3.68,4.89,4.89,0,0,1-.26,4.07q-3.3,6.34-6.73,13.85t-6.73,15.24q-3.31,7.75-6.48,15.12T69.87,398.58Z" transform="translate(-6.81 -0.01)"/><path class="cls-2" d="M236.29,437.46a2.65,2.65,0,0,1,2.93,1.39,8,8,0,0,1,.89,3.81,8.68,8.68,0,0,1-.89,3.94c-.6,1.19-1.32,1.78-2.16,1.78a60.92,60.92,0,0,1-10.93.51,46.05,46.05,0,0,1-11.94-2.54q-1.27,2.53-3.3,7a81.62,81.62,0,0,1-5,9.15,67,67,0,0,1-6.86,9.15,31.33,31.33,0,0,1-8.76,7Q186.23,480.9,180,480a45.77,45.77,0,0,1-12.45-3.68,42.2,42.2,0,0,1-11.06-7.12,18.73,18.73,0,0,1-6.09-9.4,33.88,33.88,0,0,1-.77-15,86.29,86.29,0,0,1,4.07-15.88,79.11,79.11,0,0,1,6.73-14.23,46.54,46.54,0,0,1,7.5-9.78,18.74,18.74,0,0,1,2.79-2.28,18.28,18.28,0,0,0,2.8-2.29,74.9,74.9,0,0,1-1.27-10.8A19.57,19.57,0,0,1,174.81,379q2.28-4.06,9.52-5.21A35.25,35.25,0,0,1,199.58,375a36,36,0,0,1,14.61,8.39q6.6,6.09,7.88,16.26a61.47,61.47,0,0,1-.13,18q-1.4,8.64-3.43,17.78,2.28,1.53,7.49,2.29A30.11,30.11,0,0,0,236.29,437.46Zm-64.53,29.21q9.9-5.84,14.61-13.72a118.78,118.78,0,0,0,8.26-16.77,41.44,41.44,0,0,1-13.73-15.49c-.84.85-1.94,3.13-3.3,6.86s-2.67,8-3.94,12.83A95.54,95.54,0,0,0,171,454.86Q170.24,462.11,171.76,466.67Zm26.68-45a29.45,29.45,0,0,0,2-8.51,55.61,55.61,0,0,0,.13-9.91,63.7,63.7,0,0,0-1.27-8.89,22.66,22.66,0,0,0-1.91-5.72q-4.06,5.08-3.68,14A54.61,54.61,0,0,0,198.44,421.7Z" transform="translate(-6.81 -0.01)"/><path class="cls-2" d="M299.81,426A5.27,5.27,0,0,0,301,429.2a5.84,5.84,0,0,0,1.78,1.27,12.62,12.62,0,0,1,1.52.76c.42.25.55.81.38,1.65q-.51,2-4.45,2.29a30.57,30.57,0,0,1-8.51-.76,39,39,0,0,1-8.51-2.93q-3.94-1.91-4.44-4.44a27.57,27.57,0,0,1-1-9.28,98.69,98.69,0,0,0,0-10,172.07,172.07,0,0,0-23.12,31.89q-9.66,17.14-15.25,40c-.51,1.87-1.9,2.84-4.19,2.92a17.69,17.69,0,0,1-7.24-1.39,21.76,21.76,0,0,1-6.61-4.07q-2.79-2.54-2.28-5.33A272.18,272.18,0,0,1,225.5,443q4.19-15,9.78-29.6t11.94-27.82q6.34-13.2,12.45-23.63a5.28,5.28,0,0,1,3.56-2.79,9.39,9.39,0,0,1,4.82.25q5.85,2,8.26,5a5.9,5.9,0,0,1,.64,6.73q-3.31,7.11-7.12,14.86T262,403.66q3.81-5.32,6.86-9.91,2.79-3.81,4.95-7.37c1.44-2.36,2.33-3.81,2.67-4.31,1.52-2.37,2.79-3.69,3.81-3.94s2.71.12,5.08,1.14q7.11,2.81,10.67,4.07a9.08,9.08,0,0,1,4.83,3.3c.85,1.36,1.1,3.3.76,5.84s-.76,6.44-1.27,11.69A95.39,95.39,0,0,0,299.81,426Z" transform="translate(-6.81 -0.01)"/><path class="cls-2" d="M404,315.75q3.3-1.77,7.88-.38a24.82,24.82,0,0,1,8.26,4.32,17.21,17.21,0,0,1,5.21,6.35q1.51,3.43-1,5.46-10.17,7.89-20.2,23.51a258.05,258.05,0,0,0-18.42,34.42,325.08,325.08,0,0,0-14.36,38.62,211.08,211.08,0,0,0-7.87,36.34q-1.9,16.51,1,27.31t12.06,11.56a9.83,9.83,0,0,1-6.09,2.92,18,18,0,0,1-8.77-1,25.47,25.47,0,0,1-9.15-6,31.79,31.79,0,0,1-7.24-11.69A58.87,58.87,0,0,1,342,469.6q-.51-10.55,2.79-25c0-.68-.08-1.06-.25-1.14s-.43.21-.76.89q-2,3.56-4.58,7.62a84.09,84.09,0,0,1-5.46,7.75q-2.93,3.68-5.59,6.48a14,14,0,0,1-4.7,3.55,19.18,19.18,0,0,1-7.24.77,24.8,24.8,0,0,1-8.13-1.91,19,19,0,0,1-6.73-4.7,11.83,11.83,0,0,1-3-7.62,62.88,62.88,0,0,1,1.39-14.49,133,133,0,0,1,4.83-17.53A154.43,154.43,0,0,1,312.26,406a104.93,104.93,0,0,1,10-16.39A60.1,60.1,0,0,1,334,377.62a24.25,24.25,0,0,1,12.83-5.21,20.19,20.19,0,0,1,9.52,1.78c3,1.36,5.8,2.71,8.52,4.06.67-1.86,1.86-4.53,3.55-8s3.64-7.32,5.85-11.56,4.61-8.64,7.24-13.21,5.25-8.89,7.88-13A95.69,95.69,0,0,1,397.13,322,29.06,29.06,0,0,1,404,315.75ZM355.46,396.8a8.14,8.14,0,0,0,.12-5.46q-.88-2.16-4.7-.89-3.56,1.28-7.49,5.84a82.39,82.39,0,0,0-7.75,10.8,129.25,129.25,0,0,0-7,13.09A110.62,110.62,0,0,0,323.57,433a49.32,49.32,0,0,0-2.29,10.29q-.37,4.32,1.65,5.08,1,.51,3.81-2.54a70.23,70.23,0,0,0,6.23-8.13q3.43-5.08,7.24-11.31t7-12.19c2.11-4,3.94-7.54,5.46-10.67A42.68,42.68,0,0,0,355.46,396.8Z" transform="translate(-6.81 -0.01)"/><path class="cls-2" d="M496.47,398.58c.51-.67,1.48-1,2.92-.89a10,10,0,0,1,4.07,1.14,8.61,8.61,0,0,1,3.05,2.67,3,3,0,0,1,.12,3.43q-4.83,8.38-11.05,18.68t-13.21,20.2A178.71,178.71,0,0,1,468,461.72q-7.36,8-14.48,11.31a13.75,13.75,0,0,1-8,1.14,19.63,19.63,0,0,1-7.63-2.79,22.06,22.06,0,0,1-5.84-5.34,12,12,0,0,1-2.67-6.23q-.51-4.05,1-11.18t3.3-12.95q-3,3.56-6.48,8.25c-2.28,3.14-4.79,6.48-7.49,10s-5.55,7.11-8.51,10.67a115.78,115.78,0,0,1-9.28,9.91q-2.28,2.29-7,1.78a28.94,28.94,0,0,1-9.27-2.67,28.11,28.11,0,0,1-8-5.59c-2.29-2.28-3.26-4.7-2.92-7.24a82.24,82.24,0,0,1,4.57-20.58A152.19,152.19,0,0,1,388.61,419a142.8,142.8,0,0,1,12.2-19.18,89.69,89.69,0,0,1,13.34-14.48q4.82-3.81,8.89-4.32a16.6,16.6,0,0,1,7.88.89,33.62,33.62,0,0,1,7.62,4.06q3.81,2.67,8.13,5.21,2.79-3,5.46-6.48t5.72-6.73c1.18-1.52,3.09-2.12,5.72-1.78a18,18,0,0,1,7.49,2.8,19.56,19.56,0,0,1,5.72,5.46q2.14,3.18.38,6a293.56,293.56,0,0,0-13.85,26.17,165.34,165.34,0,0,0-7.62,19.31c-1.61,5.25-2.37,9.24-2.29,11.94s.72,4.07,1.91,4.07q5.07-.26,15.5-13.72T496.47,398.58Zm-61.74,9.91a6.12,6.12,0,0,0,.76-3.56,12.29,12.29,0,0,0-.89-4.7,4.23,4.23,0,0,0-2.67-2.67c-1.18-.33-2.71.51-4.57,2.55a73.41,73.41,0,0,0-10.8,13.21,155.24,155.24,0,0,0-8.64,15,134.27,134.27,0,0,0-6,13.59q-2.28,6.23-2.28,9.28a78.51,78.51,0,0,0,7.49-7.5q4.69-5.21,9.78-11.56t9.91-12.7Q431.68,413.06,434.73,408.49Z" transform="translate(-6.81 -0.01)"/></g><g class="cls-1"><path class="cls-2" d="M584.13,315.75q3.3-1.77,7.88-.38a24.82,24.82,0,0,1,8.26,4.32,17.08,17.08,0,0,1,5.2,6.35q1.53,3.43-1,5.46-10.17,7.89-20.2,23.51a256.91,256.91,0,0,0-18.42,34.42,325.08,325.08,0,0,0-14.36,38.62,211.08,211.08,0,0,0-7.87,36.34q-1.92,16.51,1,27.31t12.07,11.56a9.86,9.86,0,0,1-6.1,2.92,18,18,0,0,1-8.76-1,25.39,25.39,0,0,1-9.15-6,31.66,31.66,0,0,1-7.24-11.69,58.26,58.26,0,0,1-3.3-17.91q-.52-10.55,2.79-25c0-.68-.09-1.06-.25-1.14s-.43.21-.77.89q-2,3.56-4.57,7.62a86.06,86.06,0,0,1-5.46,7.75q-2.92,3.68-5.59,6.48a14,14,0,0,1-4.7,3.55,19.18,19.18,0,0,1-7.24.77,24.74,24.74,0,0,1-8.13-1.91,19,19,0,0,1-6.74-4.7,11.88,11.88,0,0,1-3.05-7.62,63.51,63.51,0,0,1,1.4-14.49,130,130,0,0,1,4.83-17.53A154.43,154.43,0,0,1,492.41,406a105.66,105.66,0,0,1,10-16.39,60.38,60.38,0,0,1,11.69-11.94A24.32,24.32,0,0,1,527,372.41a20.21,20.21,0,0,1,9.53,1.78q4.44,2,8.51,4.06,1-2.79,3.56-8t5.84-11.56q3.3-6.35,7.25-13.21t7.87-13A98.34,98.34,0,0,1,577.27,322,29.08,29.08,0,0,1,584.13,315.75ZM535.6,396.8a8.09,8.09,0,0,0,.13-5.46c-.6-1.44-2.16-1.74-4.7-.89-2.38.85-4.87,2.8-7.5,5.84a83.33,83.33,0,0,0-7.75,10.8,127.22,127.22,0,0,0-7,13.09A112.61,112.61,0,0,0,503.71,433a48.59,48.59,0,0,0-2.28,10.29q-.39,4.32,1.65,5.08c.67.34,1.95-.51,3.81-2.54a71.37,71.37,0,0,0,6.23-8.13q3.42-5.08,7.24-11.31t7-12.19q3.18-6,5.47-10.67A41.39,41.39,0,0,0,535.6,396.8Z" transform="translate(-6.81 -0.01)"/><path class="cls-2" d="M642.82,437.46a2.65,2.65,0,0,1,2.93,1.39,8,8,0,0,1,.88,3.81,8.67,8.67,0,0,1-.88,3.94c-.6,1.19-1.32,1.78-2.17,1.78a60.77,60.77,0,0,1-10.92.51,46.05,46.05,0,0,1-11.94-2.54q-1.28,2.53-3.3,7a81.62,81.62,0,0,1-5,9.15,67.79,67.79,0,0,1-6.86,9.15,31.22,31.22,0,0,1-8.77,7q-4.07,2.28-10.29,1.39a46,46,0,0,1-12.45-3.68A42.31,42.31,0,0,1,563,469.21a18.82,18.82,0,0,1-6.1-9.4,34,34,0,0,1-.76-15,85.5,85.5,0,0,1,4.07-15.88A79.11,79.11,0,0,1,567,414.71a46.54,46.54,0,0,1,7.5-9.78,18.24,18.24,0,0,1,2.79-2.28,18.28,18.28,0,0,0,2.8-2.29,76.35,76.35,0,0,1-1.28-10.8A19.66,19.66,0,0,1,581.33,379q2.29-4.06,9.53-5.21A35.25,35.25,0,0,1,606.11,375a36,36,0,0,1,14.61,8.39q6.6,6.09,7.87,16.26a61.14,61.14,0,0,1-.12,18q-1.41,8.64-3.43,17.78,2.28,1.53,7.49,2.29A30.11,30.11,0,0,0,642.82,437.46Zm-64.53,29.21q9.9-5.84,14.61-13.72a117.67,117.67,0,0,0,8.25-16.77,41.5,41.5,0,0,1-13.72-15.49c-.85.85-1.95,3.13-3.3,6.86s-2.67,8-3.94,12.83a96.83,96.83,0,0,0-2.67,14.48Q576.77,462.11,578.29,466.67Zm26.67-45a29.12,29.12,0,0,0,2-8.51,55.61,55.61,0,0,0,.12-9.91,60.85,60.85,0,0,0-1.27-8.89,22.32,22.32,0,0,0-1.9-5.72q-4.07,5.08-3.69,14A55.06,55.06,0,0,0,605,421.7Z" transform="translate(-6.81 -0.01)"/><path class="cls-2" d="M722.6,402.39c2.37-.34,5.09.26,8.13,1.78a33,33,0,0,1,6.61,4.07,5,5,0,0,1-1.4,1.14,1.49,1.49,0,0,1-.89,0c-.34-.08-.8-.21-1.39-.38a5.71,5.71,0,0,0-2.42,0q-3.81.76-11.18,4.95t-15.24,9.4q-7.87,5.22-14.61,10.17a65.07,65.07,0,0,0-8.77,7.24c.85,1.36,1.69,2.63,2.54,3.81s1.69,2.46,2.54,3.81a24.13,24.13,0,0,1,3.31,13.72,31.47,31.47,0,0,1-4.2,13.34,49.43,49.43,0,0,1-9.78,12.07,67.58,67.58,0,0,1-13,9.4,35.16,35.16,0,0,1-10.29,3.68,41.77,41.77,0,0,1-11.18.77,36.07,36.07,0,0,1-10.16-2.16,16.55,16.55,0,0,1-7.37-5.21,13.75,13.75,0,0,1-2.79-8.26q-.12-4.83,3.68-11.18a81.13,81.13,0,0,1,15.12-18q9.27-8.38,18.93-15.75-4.58-6.6-9.27-12.58a34.14,34.14,0,0,1-6.48-13.34,37.17,37.17,0,0,1-.64-13.34,44.47,44.47,0,0,1,3.69-12.83,48.15,48.15,0,0,1,7.24-11.3,50.78,50.78,0,0,1,10-9,11.33,11.33,0,0,1,6.61-1.66,27.26,27.26,0,0,1,7.62,1.4,41.28,41.28,0,0,1,7,3.05,56,56,0,0,1,5,3.05q6.61-10.67,11.56-15.88c3.31-3.47,6-6.14,8-8q1.77-1.28,4.82.63a24.48,24.48,0,0,1,5.72,5.08,26,26,0,0,1,4.07,6.48c.93,2.21.8,3.73-.38,4.58a59.74,59.74,0,0,0-9.66,8.89,127.58,127.58,0,0,0-10.42,13,68.92,68.92,0,0,0-7.49,13.34q-2.67,6.47-.89,10.54a5,5,0,0,1-3.43-.25,17.75,17.75,0,0,1-4.32-2.29,17.31,17.31,0,0,1-3.94-3.94,15.58,15.58,0,0,1-2.54-5.21,10.91,10.91,0,0,1,0-4.7,52.1,52.1,0,0,1,1.27-5.21,41.14,41.14,0,0,1,1.78-4.83c.67-1.52,1.18-2.7,1.52-3.55q-4.83-.25-9,5.21A36.76,36.76,0,0,0,670,401.12,49.29,49.29,0,0,0,668.48,417a22.65,22.65,0,0,0,5.34,13.85q4.83-3,11.31-7.62t13.08-9a126.89,126.89,0,0,1,13.09-7.75A39.34,39.34,0,0,1,722.6,402.39Zm-82.06,83.09q3.56-.25,8.51-3.94a52.4,52.4,0,0,0,9.14-8.77,46.42,46.42,0,0,0,6.61-10.41q2.41-5.34.89-8.64-7.87,7.36-14.86,14.86A47.77,47.77,0,0,0,640.54,485.48Z" transform="translate(-6.81 -0.01)"/></g><path class="cls-3" d="M187.17,330.38c0,8.79-5.8,13.23-12.1,13.23S163,339.26,163,330.38s5.85-13.23,12.1-13.23S187.17,321.5,187.17,330.38Zm-12.1,11c3.84,0,5.34-4.7,5.34-11s-1.5-11-5.34-11-5.35,4.76-5.35,11,1.52,11,5.35,11Z" transform="translate(-6.81 -0.01)"/><path class="cls-3" d="M188.32,319.91v-2.05h6.13v2.62h-.6Zm7.29,20.37,5.53.58v2H188.32v-2l5.53-.58Zm-4.36-10.55c0-3.93,0-7.89-.11-11.82h6.63c-.11,3.85-.11,7.81-.11,11.82V331c0,4.08,0,8,.11,12h-6.63c.11-3.85.11-7.81.11-11.81ZM204,317.86l2.76,2.15H194.45v-2.15H208l.27,6.56h-3.18Zm-1,13.24h-8.51v-2.25H203Zm-1.16-1.59.57-3.66h2.21v8.59h-2.21l-.57-3.84Z" transform="translate(-6.81 -0.01)"/><path class="cls-3" d="M209.36,319.91v-2.05h12.29v2.05l-5.64.57h-1.12ZM216,340.28l5.64.58v2H209.36v-2l5.53-.58Zm-3.71-10.55c0-3.93,0-7.89-.11-11.82h6.63c-.12,3.85-.12,7.81-.12,11.82v1.38c0,3.95,0,7.92.12,11.84h-6.63c.11-3.85.11-7.81.11-11.81Z" transform="translate(-6.81 -0.01)"/><path class="cls-3" d="M242.57,339.27v2l-2.55.56,1.28-6h2.9l-.15,5.85a16.51,16.51,0,0,1-8,1.94c-7.35,0-13.24-4.33-13.24-13.23s6.34-13.23,13.5-13.23a14.8,14.8,0,0,1,7.47,1.89l.15,5.91H241l-1.31-6,2.55.59v2.1c-1.81-1.63-3.34-2.31-5.06-2.31-4.08,0-7.65,3.32-7.65,11.11s3.43,11,7.46,11A9.16,9.16,0,0,0,242.57,339.27Z" transform="translate(-6.81 -0.01)"/><path class="cls-3" d="M245.64,319.91v-2.05h12.3v2.05l-5.65.57h-1.12Zm6.65,20.37,5.65.58v2h-12.3v-2l5.53-.58Zm-3.72-10.55c0-3.93,0-7.89-.11-11.82h6.63c-.09,3.82-.09,7.76-.09,11.82v1.38c0,3.95,0,7.92.11,11.84h-6.63c.11-3.85.11-7.81.11-11.81Z" transform="translate(-6.81 -0.01)"/><path class="cls-3" d="M259.43,340.86l4.05-.58h1.1l4.9.58v2H259.43Zm2-21.65,2.19,1.08-4.13-.36v-2.07h8.6l13.68,18.77V343h-3.23Zm1.25-1.35,2.45,2.07v23h-2.45Zm12.27,0H285v2.05l-3.87.57h-1.06l-5.13-.57Zm4.36,0h2.46V343l-2.46-2.46Z" transform="translate(-6.81 -0.01)"/><path class="cls-3" d="M283.52,340.86l3.92-.58h.68l3.62.58v2h-8.22Zm10.84-23.05h3.93l8.58,25.09h-6.52l-6.5-20.46,1.42-1.93L288,342.9h-2.26Zm-4.11,15.6h10.3l.85,2.22H289.62Zm6.41,7.53,4.31-.57h2.55l4.89.57v2H296.66Z" transform="translate(-6.81 -0.01)"/><path class="cls-3" d="M316.64,319.91v-2.05h6.14v2.62h-.6Zm6.14,20.37v2.62h-6.14v-2l5.54-.58Zm-3.2-10.6c0-3.93,0-7.89-.12-11.82h6.63c-.09,3.87-.09,7.81-.09,11.87V331c0,4.08,0,8,.11,12h-6.63c.12-3.85.12-7.81.12-11.94Zm3.2,11h4.53c4.36,0,7.06-3.74,7.06-10.35s-2.7-10.31-7-10.31h-4.6v-2.19H328c8.12,0,13,4.75,13,12.45,0,8-5.37,12.59-13.7,12.59h-4.51Z" transform="translate(-6.81 -0.01)"/><path class="cls-3" d="M341.8,319.91v-2.05h6.13v2.62h-.6Zm6.13,20.37v2.62H341.8v-2l5.53-.58Zm-3.2-10.6c0-3.93,0-7.89-.11-11.82h6.63c-.12,3.85-.12,7.81-.12,11.82v1.25c0,4.08,0,8.05.12,12h-6.63c.11-3.85.11-7.81.11-11.81Zm12.49-11.82L360,320H347.93v-2.15h13.33l.27,6.56h-3.18Zm-.89,13.24h-8.4v-2.25h8.4Zm6,5.24-.26,6.56H348v-2.12h12.82L358,342.9l1.12-6.56Zm-7.13-6.83.57-3.66H358v8.21h-2.21l-.57-3.84Z" transform="translate(-6.81 -0.01)"/><path class="cls-4" d="M518.64,22.05c17.64,8.47,27.88,25.76,27.88,42.7a52.79,52.79,0,0,1-41.64,51.17c11.64,8.82,16.7,22.62,17.64,37.76.71,11.29,0,16.23-1.41,21.17a66.41,66.41,0,0,1,32.11,12.71c1.77,1.41-.7,3.88-2.11,2.82-9.18-6.35-18-9.17-30.71-10.59-13,46.59-62.11,100.58-120,100.58-16.94,0-27.17-10.94-27.17-24.35,0-48,74.11-84.34,128.1-82.58,3.17-8.47,6.35-19.41,6.35-30.35,0-9.88-2.82-19.41-10.23-26.11h-5.3c-18.35,0-16.58-9.88-7.06-9.88,3.53,0,10.59,2.12,14.83,5.29,11.64-1.76,35.29-19.41,35.29-49.76,0-17.29-7.41-31.76-18.71-38.11C472.76,68.63,403.6,190,379.6,209.09c-1.06,1.76-23.29,22.58-25.41,24-28.94,16.94-43.11,18.38-64.93,14.12-28.94-5.65-43-19.76-54.7-40.59-26.82-1.05-52.58-19.4-52.58-48.69,0-52.94,62.11-88.58,109.75-88.58,17.29,0,33.88,3.88,50.82,7.41,25.05-43.05,75.52-64.93,124.21-64.93,14.12,0,31.41,1.76,45.88,7.76,0,.35.35.35.71.35C526.05,9.36,537.7,3,547.93,3c2.47,0,4.94,2.11,4.94,4.58,0,2.83-2.47,4.24-4.94,4.24-3.88,0-4.94-3.53-8.12-3.53C534.87,8.29,527.46,13.58,518.64,22.05Zm-171.86,126c-11.65-4.94-16.94-16.93-16.94-31.76,0-12.35,4.94-25.4,10.94-36.34-16.23-3.53-32.47-7.06-49-7.06-45.52,0-106.22,34.23-106.22,85.05,0,28.23,25.76,45.17,51.87,45.17,30.3,0,83.94-22.61,109.35-55.08Zm164.1-126c-13.77-5.29-31.06-6.7-44.12-6.7-47.64,0-95.28,20.82-120.69,62.11,14.47,3.17,28.59,5.64,43.41,5.64,21.88,0,49-12.35,46.58-36.35-.35-2.11,2.12-1.41,2.12-.7a37,37,0,0,1,1.76,12.7c0,37.06-40.58,91.4-80.1,91.4a36.4,36.4,0,0,1-9.18-1.06c-24,29.29-66,51.17-99.51,56.47,4.94,16.23,23.29,28.23,39.52,28.23C357.72,233.79,447,77.1,510.88,22.05ZM357,93.73c3.53,3.17,9.89,3.88,12.36,2.47a40.56,40.56,0,0,1,.35,6.7c0,15.18-6.35,30-16.59,43.41a40.68,40.68,0,0,0,6.71.35c37.05,0,77.28-53.28,77.28-87.16-3.53,14.11-25.05,27.17-47.64,27.17-15.53,0-30.35-2.82-45.17-6-6,10.94-10.94,23.29-10.94,36,0,13.76,4.59,24.35,15.88,28.58,7.41-10.59,12-21.88,12-33.88a38.44,38.44,0,0,0-4.59-17.29Zm20.83,162.68c0,10.94,8.82,19.41,23.29,19.41,37.05,0,80.81-55.4,98.45-97.75-45.51-2.16-121.73,33.13-121.73,78.3Z" transform="translate(-6.81 -0.01)"/></svg>