<svg id="Layer_1" data-name="Layer 1" xmlns="http://www.w3.org/2000/svg" viewBox="0 0 730.5 521.3"><defs><style>.cls-1{isolation:isolate}.cls-2{fill:#d88827}.cls-3{fill:#110454}</style></defs><g class="cls-1"><path class="cls-2" d="M71 338a173 173 0 0 0-23 22q-10 12-15 21t-3 14q2 6 11 4-1 6-7 7a21 21 0 0 1-12-1 26 26 0 0 1-11-8q-5-6-4-15 0-7 6-17a117 117 0 0 1 14-19 175 175 0 0 1 20-18 191 191 0 0 1 22-16 115 115 0 0 1 24-11 60 60 0 0 1 21-3 35 35 0 0 1 16 4 46 46 0 0 1 12 11 38 38 0 0 1 8 13 21 21 0 0 1-1 14 55 55 0 0 1-7 13 118 118 0 0 1-9 11l-9 9-8 7a30 30 0 0 1 15 6 40 40 0 0 1 11 12l18-6a65 65 0 0 1 16-4c1 0 2 0 2 2a16 16 0 0 1 1 5 14 14 0 0 1-2 5 5 5 0 0 1-3 3 133 133 0 0 0-16 5 100 100 0 0 0-13 5 80 80 0 0 1-8 26 170 170 0 0 1-17 27 197 197 0 0 1-23 25 179 179 0 0 1-26 20q-13 9-24 10t-17-3q-6-4-6-13t8-21a164 164 0 0 1 18-22 282 282 0 0 1 22-21l24-19a236 236 0 0 1 22-13 5 5 0 0 0 1-2 15 15 0 0 0 0-4 16 16 0 0 0-2-4 5 5 0 0 0-3-3q-4-1-10 1a59 59 0 0 0-12 7 121 121 0 0 0-13 10l-12 12-10 11-6 8c-3 3-5 4-7 4a14 14 0 0 1-6-1 14 14 0 0 1-5-5c-2-2-2-5-1-8l8-22 10-27 11-27q5-13 10-21ZM45 501a52 52 0 0 0 11-7l13-11 14-13 13-15 10-13a43 43 0 0 0 5-10 216 216 0 0 0-18 13 271 271 0 0 0-20 18 184 184 0 0 0-18 20q-7 10-10 18Zm25-102 10-10 15-15 16-17a168 168 0 0 0 13-17q5-8 6-15t-3-9q-3-2-7-1a60 60 0 0 0-11 3 93 93 0 0 0-12 5 82 82 0 0 0-12 6 17 17 0 0 1 4 2 15 15 0 0 1 4 2 10 10 0 0 1 3 4 5 5 0 0 1 0 4l-7 14-7 15-6 15-6 14Z" transform="translate(-7)"/><path class="cls-2" d="M236 437a3 3 0 0 1 3 2 8 8 0 0 1 1 4 9 9 0 0 1-1 4l-2 1a61 61 0 0 1-11 1 46 46 0 0 1-12-3l-3 7a82 82 0 0 1-5 9 67 67 0 0 1-7 10 31 31 0 0 1-9 7q-4 2-10 1a46 46 0 0 1-12-4 42 42 0 0 1-12-7 19 19 0 0 1-6-9 34 34 0 0 1 0-15 86 86 0 0 1 4-16 79 79 0 0 1 6-14 47 47 0 0 1 8-10 19 19 0 0 1 3-2 18 18 0 0 0 3-3 75 75 0 0 1-2-10 20 20 0 0 1 3-11q2-4 9-5a35 35 0 0 1 16 1 36 36 0 0 1 14 8q7 6 8 17a61 61 0 0 1 0 18l-3 17q2 2 7 3a30 30 0 0 0 10-1Zm-64 30q10-6 14-14a119 119 0 0 0 9-17 41 41 0 0 1-14-15l-3 7-4 12a96 96 0 0 0-3 15q-1 7 1 12Zm26-45a29 29 0 0 0 2-9 56 56 0 0 0 1-10 64 64 0 0 0-2-9 23 23 0 0 0-2-5q-4 5-3 14a55 55 0 0 0 4 19Z" transform="translate(-7)"/><path class="cls-2" d="M300 426a5 5 0 0 0 1 3 6 6 0 0 0 2 1 13 13 0 0 1 1 1l1 2q-1 2-5 2a31 31 0 0 1-8-1 39 39 0 0 1-9-3q-4-1-4-4a28 28 0 0 1-1-9 99 99 0 0 0 0-10 172 172 0 0 0-23 32q-10 17-16 40c0 2-2 2-4 3a18 18 0 0 1-7-2 22 22 0 0 1-7-4q-2-2-2-5a272 272 0 0 1 7-29l9-30q5-15 12-27l13-24a5 5 0 0 1 3-3 9 9 0 0 1 5 0q6 2 8 5a6 6 0 0 1 1 7l-7 15-8 18 7-10 5-8 2-4 4-4 5 1 11 4a9 9 0 0 1 5 4l1 5-2 12a95 95 0 0 0 0 22Z" transform="translate(-7)"/><path class="cls-2" d="M404 316q3-2 8-1a25 25 0 0 1 8 5 17 17 0 0 1 5 6q2 3-1 6-10 7-20 23a258 258 0 0 0-18 34 325 325 0 0 0-15 39 211 211 0 0 0-8 36q-1 17 1 28t13 11a10 10 0 0 1-7 3 18 18 0 0 1-8-1 25 25 0 0 1-9-6 32 32 0 0 1-8-12 59 59 0 0 1-3-17q-1-11 3-25v-2l-1 1-5 8a84 84 0 0 1-5 8l-6 6a14 14 0 0 1-5 4 19 19 0 0 1-7 1 25 25 0 0 1-8-2 19 19 0 0 1-7-5 12 12 0 0 1-3-8 63 63 0 0 1 2-14 133 133 0 0 1 5-18 154 154 0 0 1 7-18 105 105 0 0 1 10-16 60 60 0 0 1 12-12 24 24 0 0 1 13-6 20 20 0 0 1 9 2l9 4 3-8c1-4 4-7 6-11l8-14 7-13a96 96 0 0 1 8-10 29 29 0 0 1 7-6Zm-49 81a8 8 0 0 0 1-6q-1-2-5-1l-8 6a82 82 0 0 0-7 11 129 129 0 0 0-7 13 111 111 0 0 0-5 13 49 49 0 0 0-3 10q0 5 2 5 1 1 4-2a70 70 0 0 0 6-8l7-12 7-12 6-10a43 43 0 0 0 2-7Z" transform="translate(-7)"/><path class="cls-2" d="m496 399 3-1a10 10 0 0 1 4 1 9 9 0 0 1 4 2 3 3 0 0 1 0 4l-11 19q-6 11-14 20a179 179 0 0 1-14 18q-7 8-14 11a14 14 0 0 1-8 1 20 20 0 0 1-8-3 22 22 0 0 1-6-5 12 12 0 0 1-3-6l1-11q1-7 4-13l-7 8-7 10-9 11a116 116 0 0 1-9 10q-2 2-7 1a29 29 0 0 1-9-2 28 28 0 0 1-8-6c-3-2-4-5-3-7a82 82 0 0 1 4-21 152 152 0 0 1 10-21 143 143 0 0 1 12-19 90 90 0 0 1 13-15l9-4a17 17 0 0 1 8 1 34 34 0 0 1 8 4l8 5 5-6 6-7c1-2 3-2 6-2a18 18 0 0 1 7 3 20 20 0 0 1 6 5q2 4 0 6a294 294 0 0 0-14 27 165 165 0 0 0-7 19l-3 12c0 3 1 4 2 4q5 0 16-14t25-39Zm-61 9a6 6 0 0 0 0-3 12 12 0 0 0 0-5 4 4 0 0 0-3-2c-1-1-3 0-5 2a73 73 0 0 0-10 13 155 155 0 0 0-9 15 134 134 0 0 0-6 14l-2 9a79 79 0 0 0 7-7l10-12 10-13 8-11Z" transform="translate(-7)"/></g><g class="cls-1"><path class="cls-2" d="M584 316q3-2 8-1a25 25 0 0 1 8 5 17 17 0 0 1 5 6q2 3-1 6-10 7-20 23a257 257 0 0 0-18 34 325 325 0 0 0-15 39 211 211 0 0 0-7 36q-2 17 1 28t12 11a10 10 0 0 1-6 3 18 18 0 0 1-9-1 25 25 0 0 1-9-6 32 32 0 0 1-8-12 58 58 0 0 1-3-17q0-11 3-25v-2l-1 1-5 8a86 86 0 0 1-5 8l-6 6a14 14 0 0 1-4 4 19 19 0 0 1-8 1 25 25 0 0 1-8-2 19 19 0 0 1-7-5 12 12 0 0 1-3-8 64 64 0 0 1 2-14 130 130 0 0 1 5-18 154 154 0 0 1 7-18 106 106 0 0 1 10-16 60 60 0 0 1 12-12 24 24 0 0 1 13-6 20 20 0 0 1 10 2l8 4 4-8 5-11 8-14 8-13a98 98 0 0 1 7-10 29 29 0 0 1 7-6Zm-48 81a8 8 0 0 0 0-6l-5-1-7 6a83 83 0 0 0-8 11 127 127 0 0 0-7 13 113 113 0 0 0-5 13 49 49 0 0 0-3 10q0 5 2 5c1 1 2 0 4-2a71 71 0 0 0 6-8l7-12 7-12 6-10a41 41 0 0 0 3-7Z" transform="translate(-7)"/><path class="cls-2" d="M643 437a3 3 0 0 1 3 2 8 8 0 0 1 1 4 9 9 0 0 1-1 4l-2 1a61 61 0 0 1-11 1 46 46 0 0 1-12-3l-4 7a82 82 0 0 1-5 9 68 68 0 0 1-6 10 31 31 0 0 1-9 7q-4 2-10 1a46 46 0 0 1-13-4 42 42 0 0 1-11-7 19 19 0 0 1-6-9 34 34 0 0 1-1-15 86 86 0 0 1 4-16 79 79 0 0 1 7-14 47 47 0 0 1 8-10 18 18 0 0 1 2-2 18 18 0 0 0 3-3 76 76 0 0 1-1-10 20 20 0 0 1 2-11q3-4 10-5a35 35 0 0 1 15 1 36 36 0 0 1 15 8q6 6 8 17a61 61 0 0 1-1 18l-3 17q2 2 8 3a30 30 0 0 0 10-1Zm-65 30q10-6 15-14a118 118 0 0 0 8-17 42 42 0 0 1-14-15l-3 7-4 12a97 97 0 0 0-2 15v12Zm27-45a29 29 0 0 0 2-9 56 56 0 0 0 0-10 61 61 0 0 0-1-9 22 22 0 0 0-2-5q-4 5-4 14a55 55 0 0 0 5 19Z" transform="translate(-7)"/><path class="cls-2" d="m723 402 8 2a33 33 0 0 1 6 4 5 5 0 0 1-1 1 1 1 0 0 1-1 0h-1a6 6 0 0 0-3 0l-11 5-15 9-15 11a65 65 0 0 0-9 7l3 4 3 3a24 24 0 0 1 3 14 31 31 0 0 1-4 13 49 49 0 0 1-10 13 68 68 0 0 1-13 9 35 35 0 0 1-10 4 42 42 0 0 1-12 0 36 36 0 0 1-10-2 17 17 0 0 1-7-5 14 14 0 0 1-3-8q0-5 4-11a81 81 0 0 1 15-18q9-9 19-16l-9-13a34 34 0 0 1-7-13 37 37 0 0 1-1-13 44 44 0 0 1 4-13 48 48 0 0 1 7-12 51 51 0 0 1 10-9 11 11 0 0 1 7-1 27 27 0 0 1 8 1 41 41 0 0 1 7 3 56 56 0 0 1 5 3l11-16 8-8q2-1 5 1a24 24 0 0 1 6 5 26 26 0 0 1 4 7c1 2 1 3-1 4a60 60 0 0 0-9 9 128 128 0 0 0-11 13 69 69 0 0 0-7 13q-3 7-1 11a5 5 0 0 1-4 0 18 18 0 0 1-4-3 17 17 0 0 1-4-4 16 16 0 0 1-2-5 11 11 0 0 1 0-4 52 52 0 0 1 1-6 41 41 0 0 1 2-5l1-3q-5 0-9 5a37 37 0 0 0-6 13 49 49 0 0 0-2 16 23 23 0 0 0 6 14l11-8 13-9a127 127 0 0 1 13-8 39 39 0 0 1 12-4Zm-82 83q3 0 8-3a52 52 0 0 0 9-9 46 46 0 0 0 7-11q2-5 1-8l-15 15a48 48 0 0 0-10 16Z" transform="translate(-7)"/></g><path class="cls-3" d="M187 330c0 9-6 14-12 14s-12-5-12-14 6-13 12-13 12 5 12 13Zm-12 11c4 0 5-4 5-11s-1-11-5-11-5 5-5 11 1 11 5 11ZM188 320v-2h6v2Zm8 20 5 1v2h-13v-2l6-1Zm-5-10v-12h7v25h-7v-12Zm13-12 3 2h-13v-2h14v6h-3Zm-1 13h-9v-2h9Zm-1-1v-4h3v8h-3v-3ZM209 320v-2h13v2h-7Zm7 20 6 1v2h-13v-2l6-1Zm-4-10v-12h7v25h-7v-12ZM243 339v2l-3 1 1-6h3v6a17 17 0 0 1-8 2c-7 0-13-5-13-14s6-13 13-13a15 15 0 0 1 8 2v6h-3l-1-6 2 1v2c-2-2-3-3-5-3-4 0-7 4-7 11s3 11 7 11a9 9 0 0 0 6-2ZM246 320v-2h12v2h-7Zm6 20 6 1v2h-12v-2l5-1Zm-3-10-1-12h7v25h-7l1-12ZM259 341l4-1h2l4 1v2h-10Zm2-22 3 1h-5v-2h9l14 19v6h-3Zm2-1 2 2v23h-2Zm12 0h10v2h-10Zm4 0h3v25l-3-2ZM284 341l3-1h1l4 1v2h-8Zm10-23h4l9 25h-7l-6-21 1-1-7 22h-2Zm-4 15h11v3h-11Zm7 8 4-1h3l4 1v2h-11ZM317 320v-2h6v2h-1Zm6 20v3h-6v-2l5-1Zm-3-10-1-12h7v25h-7l1-12Zm3 11h4c5 0 7-4 7-11s-2-10-7-10h-4v-2h5c8 0 13 5 13 12 0 8-5 13-14 13h-4ZM342 320v-2h6v2h-1Zm6 20v3h-6v-2l5-1Zm-3-10v-12h6v25h-6v-12Zm12-12 3 2h-12v-2h13l1 6h-4Zm-1 13h-8v-2h8Zm6 5v7h-14v-2h13l-3 2 1-7Zm-7-6 1-4h2v8h-2l-1-4Z" transform="translate(-7)"/><path d="M519 22c17 9 28 26 28 43a53 53 0 0 1-42 51c12 9 17 23 18 38 0 11 0 16-2 21a66 66 0 0 1 32 13c2 1 0 3-2 2-9-6-18-9-31-10-13 46-62 100-120 100-17 0-27-11-27-24 0-48 74-84 128-83 3-8 7-19 7-30 0-10-3-19-11-26h-5c-18 0-16-10-7-10 4 0 11 2 15 5 12-1 35-19 35-49 0-18-7-32-19-38-43 44-112 165-136 184l-26 24c-29 17-43 18-65 14-29-5-43-20-54-40-27-1-53-20-53-49 0-53 62-89 110-89 17 0 34 4 51 8 25-43 75-65 124-65a124 124 0 0 1 46 8c13-11 25-17 35-17 2 0 5 2 5 5 0 2-3 4-5 4-4 0-5-4-8-4-5 0-13 6-21 14ZM347 148c-12-5-17-17-17-32 0-12 5-25 11-36-16-4-33-7-49-7-46 0-106 34-106 85 0 28 25 45 51 45 31 0 84-22 110-55ZM511 22c-14-5-31-7-44-7-48 0-96 21-121 62 15 4 29 6 43 6 22 0 49-12 47-36 0-2 2-2 2-1a37 37 0 0 1 2 13c0 37-41 91-80 91a36 36 0 0 1-9-1c-24 29-66 51-100 57 5 16 23 28 40 28 67 0 156-157 220-212ZM357 94c4 3 10 4 12 2a41 41 0 0 1 1 7c0 15-7 30-17 43a41 41 0 0 0 7 1c37 0 77-54 77-87-3 14-25 27-48 27-15 0-30-3-45-6-6 11-11 23-11 36s5 24 16 28c8-10 12-22 12-34a38 38 0 0 0-4-17Zm21 162c0 11 9 20 23 20 37 0 81-56 99-98-46-2-122 33-122 78Z" transform="translate(-7)" style="stroke:#110454;stroke-linecap:round;stroke-linejoin:round;stroke-width:6px;fill:#110454"/></svg>