<svg id="Layer_1" data-name="Layer 1" xmlns="http://www.w3.org/2000/svg" viewBox="0 0 735.82 594.23"><defs><style>.cls-1{font-size:254.08px;fill:#d88827;font-family:BillionDreams, Billion Dreams;}.cls-2{letter-spacing:-0.02em;}.cls-3,.cls-4{fill:#110454;}.cls-4{stroke:#110454;stroke-linecap:round;stroke-linejoin:round;stroke-width:6px;}</style></defs><text class="cls-1" transform="translate(0 495.64)">Borda<tspan class="cls-2" x="491.9" y="0">dos</tspan></text><path class="cls-3" d="M200.17,470.65c0,8.79-5.8,13.23-12.1,13.23S176,479.53,176,470.65s5.85-13.23,12.1-13.23S200.17,461.77,200.17,470.65Zm-12.1,11c3.84,0,5.34-4.7,5.34-11s-1.5-11-5.34-11-5.35,4.76-5.35,11S184.24,481.67,188.07,481.67Z" transform="translate(-13 -140.27)"/><path class="cls-3" d="M201.32,460.18v-2.05h6.13v2.62h-.6Zm7.29,20.37,5.53.58v2H201.32v-2l5.53-.58ZM204.25,470c0-3.93,0-7.89-.11-11.82h6.63c-.11,3.85-.11,7.81-.11,11.82v1.25c0,4.08,0,8.05.11,12h-6.63c.11-3.85.11-7.81.11-11.81ZM217,458.13l2.76,2.15H207.45v-2.15H221l.27,6.56h-3.18Zm-1,13.24h-8.51v-2.25H216Zm-1.16-1.59.57-3.66h2.21v8.59h-2.21l-.57-3.84Z" transform="translate(-13 -140.27)"/><path class="cls-3" d="M222.36,460.18v-2.05h12.29v2.05l-5.64.57h-1.12ZM229,480.55l5.64.58v2H222.36v-2l5.53-.58ZM225.29,470c0-3.93,0-7.89-.11-11.82h6.63c-.12,3.85-.12,7.81-.12,11.82v1.38c0,3.95,0,7.92.12,11.84h-6.63c.11-3.85.11-7.81.11-11.81Z" transform="translate(-13 -140.27)"/><path class="cls-3" d="M255.57,479.54v2l-2.55.56,1.28-6h2.9l-.15,5.85a16.45,16.45,0,0,1-8,1.94c-7.35,0-13.24-4.33-13.24-13.23s6.34-13.23,13.5-13.23a14.86,14.86,0,0,1,7.47,1.89l.15,5.91H254l-1.31-6,2.55.59v2.1c-1.81-1.63-3.34-2.31-5.06-2.31-4.08,0-7.65,3.32-7.65,11.11s3.43,11,7.46,11A9.14,9.14,0,0,0,255.57,479.54Z" transform="translate(-13 -140.27)"/><path class="cls-3" d="M258.64,460.18v-2.05h12.3v2.05l-5.65.57h-1.12Zm6.65,20.37,5.65.58v2h-12.3v-2l5.53-.58ZM261.57,470c0-3.93,0-7.89-.11-11.82h6.63C268,462,268,465.94,268,470v1.38c0,3.95,0,7.92.11,11.84h-6.63c.11-3.85.11-7.81.11-11.81Z" transform="translate(-13 -140.27)"/><path class="cls-3" d="M272.43,481.13l4.05-.58h1.1l4.9.58v2H272.43Zm2-21.65,2.19,1.08-4.13-.36v-2.07h8.6l13.68,18.77v6.35h-3.23Zm1.25-1.35,2.45,2.07v23h-2.45Zm12.27,0H298v2.05l-3.87.57h-1.06l-5.13-.57Zm4.36,0h2.46v25.12l-2.46-2.46Z" transform="translate(-13 -140.27)"/><path class="cls-3" d="M296.52,481.13l3.92-.58h.68l3.62.58v2h-8.22Zm10.84-23.05h3.93l8.58,25.09h-6.52l-6.5-20.46,1.42-1.93L301,483.17h-2.26Zm-4.11,15.6h10.3l.85,2.22H302.62Zm6.41,7.53,4.31-.57h2.55l4.89.57v2H309.66Z" transform="translate(-13 -140.27)"/><path class="cls-3" d="M329.64,460.18v-2.05h6.14v2.62h-.6Zm6.14,20.37v2.62h-6.14v-2l5.54-.58Zm-3.2-10.6c0-3.93,0-7.89-.12-11.82h6.63C339,462,339,465.94,339,470v1.25c0,4.08,0,8.05.11,12h-6.63c.12-3.85.12-7.81.12-11.94Zm3.2,11h4.53c4.36,0,7.06-3.74,7.06-10.35s-2.7-10.31-7-10.31h-4.6v-2.19H341c8.12,0,13,4.75,13,12.45,0,8-5.37,12.59-13.7,12.59h-4.51Z" transform="translate(-13 -140.27)"/><path class="cls-3" d="M354.8,460.18v-2.05h6.13v2.62h-.6Zm6.13,20.37v2.62H354.8v-2l5.53-.58Zm-3.2-10.6c0-3.93,0-7.89-.11-11.82h6.63c-.12,3.85-.12,7.81-.12,11.82v1.25c0,4.08,0,8.05.12,12h-6.63c.11-3.85.11-7.81.11-11.81Zm12.49-11.82,2.76,2.15H360.93v-2.15h13.33l.27,6.56h-3.18Zm-.89,13.24h-8.4v-2.25h8.4Zm6,5.24-.26,6.56h-14.1v-2.12h12.82L371,483.17l1.12-6.56Zm-7.13-6.83.57-3.66h2.21v8.21h-2.21l-.57-3.84Z" transform="translate(-13 -140.27)"/><path class="cls-4" d="M531.64,162.32c17.64,8.47,27.88,25.76,27.88,42.7a52.79,52.79,0,0,1-41.64,51.17c11.64,8.82,16.7,22.62,17.64,37.76.71,11.29,0,16.23-1.41,21.17a66.4,66.4,0,0,1,32.11,12.71c1.77,1.41-.7,3.88-2.11,2.82-9.18-6.35-18-9.17-30.71-10.59-13,46.59-62.11,100.58-120,100.58-16.94,0-27.17-10.94-27.17-24.35,0-48,74.11-84.34,128.1-82.58,3.17-8.47,6.35-19.41,6.35-30.35,0-9.88-2.82-19.41-10.23-26.11h-5.3c-18.35,0-16.58-9.88-7.06-9.88,3.53,0,10.59,2.12,14.83,5.29,11.64-1.76,35.29-19.41,35.29-49.76,0-17.29-7.41-31.76-18.71-38.11C485.76,208.9,416.6,330.3,392.6,349.36c-1.06,1.76-23.29,22.58-25.41,24-28.94,16.94-43.11,18.38-64.93,14.12-28.94-5.65-43.05-19.76-54.7-40.59-26.82-1.05-52.58-19.4-52.58-48.69,0-52.94,62.11-88.58,109.75-88.58,17.29,0,33.88,3.88,50.82,7.41,25.05-43.05,75.52-64.93,124.21-64.93,14.12,0,31.41,1.76,45.88,7.76,0,.35.35.35.71.35,12.7-10.58,24.35-16.93,34.58-16.93,2.47,0,4.94,2.11,4.94,4.58,0,2.83-2.47,4.24-4.94,4.24-3.88,0-4.94-3.53-8.12-3.53C547.87,148.56,540.46,153.85,531.64,162.32Zm-171.86,126c-11.65-4.94-16.94-16.93-16.94-31.76,0-12.35,4.94-25.4,10.94-36.34-16.23-3.53-32.47-7.06-49-7.06-45.52,0-106.22,34.23-106.22,85.05,0,28.23,25.76,45.17,51.87,45.17C280.73,343.36,334.37,320.77,359.78,288.3Zm164.1-126c-13.77-5.29-31.06-6.7-44.12-6.7-47.64,0-95.28,20.82-120.69,62.11,14.47,3.17,28.59,5.64,43.41,5.64,21.88,0,49-12.35,46.58-36.35-.35-2.11,2.12-1.41,2.12-.7a36.92,36.92,0,0,1,1.76,12.7c0,37.06-40.58,91.4-80.1,91.4a36.29,36.29,0,0,1-9.18-1.06c-24,29.29-66,51.17-99.51,56.47,4.94,16.23,23.29,28.23,39.52,28.23C370.72,374.06,460,217.37,523.88,162.32ZM370,234c3.53,3.17,9.89,3.88,12.36,2.47a40.81,40.81,0,0,1,.35,6.7c0,15.18-6.35,30-16.59,43.41a40.93,40.93,0,0,0,6.71.35c37.05,0,77.28-53.28,77.28-87.16-3.53,14.11-25.05,27.17-47.64,27.17-15.53,0-30.35-2.82-45.17-6-6,10.94-10.94,23.29-10.94,36,0,13.76,4.59,24.35,15.88,28.58,7.41-10.59,12-21.88,12-33.88a38.41,38.41,0,0,0-4.59-17.29Zm20.83,162.68c0,10.94,8.82,19.41,23.29,19.41,37.05,0,80.81-55.4,98.45-97.75C467.06,316.18,390.84,351.47,390.84,396.64Z" transform="translate(-13 -140.27)"/></svg>