<svg data-name="Layer 1" xmlns="http://www.w3.org/2000/svg" viewBox="0 0 511.3 512.1"><path d="M491 235a21 21 0 0 1-22-22A171 171 0 0 0 299 43a21 21 0 1 1 0-43c117 0 213 96 213 213a21 21 0 0 1-21 22Zm-64-22A128 128 0 0 0 299 85a21 21 0 1 0 0 43 85 85 0 0 1 85 85 21 21 0 1 0 43 0Zm46 260 20-23a66 66 0 0 0 0-93l-52-40a66 66 0 0 0-92 0l-40 34a273 273 0 0 1-148-148l34-40a66 66 0 0 0 0-92s-39-51-40-52a66 66 0 0 0-92-1L38 40c-145 168 167 478 341 472a131 131 0 0 0 94-39Z" transform="translate(-1)" style="fill:#110454"/></svg>