<svg width="800" height="800" viewBox="-1.5 0 259 259" xmlns="http://www.w3.org/2000/svg" preserveAspectRatio="xMidYMid"><path d="m67.7 221.8 4.1 2.1A112 112 0 0 0 240 127.6 112 112 0 0 0 128.5 16a111 111 0 0 0-111 112.4c0 20.9 6.3 41.1 16.8 58.5l2.8 4.2-11.2 41.2 41.9-10.5Z" fill="#00E676"/><path d="M219 37.7A127.4 127.4 0 0 0 1.4 128.4c0 22.3 6.3 43.9 16.7 63.4L0 258.1l67.7-17.4a124.6 124.6 0 0 0 60.7 15.3A128.3 128.3 0 0 0 219 37.7Zm-90 196.7c-18.8 0-37.6-4.9-53.7-14.7l-4.1-2L30.7 228l10.5-39.8-2.8-4.1A105.5 105.5 0 0 1 72.5 38.4a105.4 105.4 0 0 1 145.8 34.1 105.4 105.4 0 0 1-34.1 145.8c-16 10.5-35.6 16-55.2 16Zm61.4-77.4-7.6-3.5s-11.2-5-18.2-8.4c-.7 0-1.4-.7-2-.7-2.2 0-3.6.7-5 1.4l-10.4 11.8c-.7 1.4-2.1 2.1-3.5 2.1h-.7c-.7 0-2-.7-2.8-1.4l-3.5-1.3a67.8 67.8 0 0 1-20.2-13.3c-1.4-1.4-3.5-2.8-4.9-4.2a78 78 0 0 1-13.2-16.7l-.7-1.4c-.7-.7-.7-1.4-1.4-2.8 0-1.4 0-2.8.7-3.5 0 0 2.8-3.5 4.8-5.6 1.4-1.4 2.1-3.5 3.5-4.9 1.4-2 2.1-4.8 1.4-7-.7-3.4-9-22.3-11.1-26.4a8 8 0 0 0-5-3.5H83c-1.4 0-2.8.7-4.2.7l-.7.7c-1.4.7-2.8 2-4.2 2.7-1.4 1.4-2 2.8-3.4 4.2-5 6.3-7.7 14-7.7 21.7 0 5.5 1.4 11.1 3.5 16l.7 2a116.2 116.2 0 0 0 25.8 35.7l2.8 2.8c2 2 4.2 3.4 5.5 5.5a124.6 124.6 0 0 0 50.3 26.5c2 .7 4.9.7 7 1.4h7c3.4 0 7.6-1.4 10.4-2.7 2-1.4 3.5-1.4 4.9-2.8l1.4-1.4c1.4-1.4 2.8-2.1 4.1-3.5 1.4-1.4 2.8-2.8 3.5-4.2 1.4-2.8 2.1-6.3 2.8-9.8v-4.9s-.7-.7-2-1.3Z" fill="#FFF"/></svg>