<svg id="Layer_1" data-name="Layer 1" xmlns="http://www.w3.org/2000/svg" viewBox="0 0 790.6 796"><defs><style>.cls-1{fill:#110454;}</style></defs><path class="cls-1" d="M580.36,480.07C570.27,475.3,522,451.42,513,447.7s-15.39-4.77-22.29,5.31-25.47,31.84-31.3,38.74-11.15,7.43-21.23,0a272.25,272.25,0,0,1-79.07-48.82A278.41,278.41,0,0,1,306,374.47c-5.84-9.55,0-14.86,4.24-20.16s9.55-11.15,14.86-17a73.86,73.86,0,0,0,9.55-16.45,20.14,20.14,0,0,0,0-17.51c0-4.78-22.29-53.07-30.78-72.7s-15.92-17-21.75-17H260.9a38.24,38.24,0,0,0-26.53,12.21,111.45,111.45,0,0,0-34.5,82.25,190.54,190.54,0,0,0,39.8,103.48A441.52,441.52,0,0,0,409,560.2c23.35,10.09,41.39,15.92,55.72,20.7a134.27,134.27,0,0,0,62.09,3.71,102.38,102.38,0,0,0,66.86-46.69,88.6,88.6,0,0,0,5.84-46.7C596.81,487.5,590.44,484.85,580.36,480.07Z" transform="translate(-5.65 -3)"/><path class="cls-1" d="M679.59,118.7A390.56,390.56,0,0,0,398.87,3C180.83,4.15,5,181.84,6.13,399.88A394.84,394.84,0,0,0,58.72,594.7L5.65,799l209.08-53.07a392.56,392.56,0,0,0,188.39,47.76h-4.25c218,1.42,396-174.18,397.37-392.23A394.76,394.76,0,0,0,679.59,118.7ZM398.87,725.77A324.73,324.73,0,0,1,231.71,679.6L220,672.7,95.87,705.07l32.9-121-7.43-12.2C25.79,418,73.07,215.82,226.94,120.27A326.7,326.7,0,0,1,726.82,397.82C726.52,578.82,579.87,725.48,398.87,725.77Z" transform="translate(-5.65 -3)"/></svg>